PathFileType	4	(X/Y/Z)	Trial_1_0-99.trc
DataRate	CameraRate	NumFrames	NumMarkers	Units	OrigDataRate	OrigDataStartFrame	OrigNumFrames
60	60	6	22	m	60	49	99
Frame#	Time	Hip			RHip			RKnee			RAnkle			RBigToe			RSmallToe			RHeel			LHip			LKnee			LAnkle			LBigToe			LSmallToe			LHeel			Neck			Head			Nose			RShoulder			RElbow			RWrist			LShoulder			LElbow			LWrist		
		X1	Y1	Z1	X2	Y2	Z2	X3	Y3	Z3	X4	Y4	Z4	X5	Y5	Z5	X6	Y6	Z6	X7	Y7	Z7	X8	Y8	Z8	X9	Y9	Z9	X10	Y10	Z10	X11	Y11	Z11	X12	Y12	Z12	X13	Y13	Z13	X14	Y14	Z14	X15	Y15	Z15	X16	Y16	Z16	X17	Y17	Z17	X18	Y18	Z18	X19	Y19	Z19	X20	Y20	Z20	X21	Y21	Z21	X22	Y22	Z22
49	0.8166666666666667	-0.13998135774504983	0.9387708438712328	-1.068718806621699	-0.21822488407432541	0.9969838287807169	-1.0413458569237455	-0.5276683718347354	0.7549058591700993	-0.8794369601591784	-0.8048318197761466	0.4520895545288612	-0.934741067020559	-0.8544352565340914	0.38176547121273746	-0.7789152166751282	-0.8874754906891391	0.39259746520016514	-0.8442844097557692	-0.8238764685716594	0.40287227380218676	-0.9660642025841618	-0.049745696887140645	0.8774202635493492	-1.0463503984534053	-0.07123916243358684	0.48433340462912855	-0.9492903545522975	-0.02470702622010315	0.16046433757844764	-1.1434436871563038	-0.025444100038818966	0.08155892503330685	-1.0093134583658	0.018030472437472196	0.07660686661270574	-1.0409493151070202	-0.0251399408837016	0.11347987341547576	-1.1985627274111625	0.2462499641220022	1.318869332207072	-0.993359390388702	0.40015887140763556	1.4638515241048486	-0.8608986699204472	0.3212888483333594	1.3311705974048158	-0.8576672951817705	0.07691310773848149	1.4115607467016196	-1.0294764492986437	-0.17579231541923068	1.4998052852125707	-1.0199338561173021	-0.10010523814479717	1.646684979229122	-0.8387235577705374	0.33107413982619854	1.149280441611972	-1.068071574995475	0.36546539274293355	0.8777982679341588	-1.0684462293788533	0.39175863495346447	0.6291308466923962	-0.9852424001097062
50	0.8333333333333334	-0.14305038200294606	0.9437527040884403	-1.0708702425494492	-0.2232174422396474	0.9967790149038833	-1.0427574386836982	-0.5280737319246622	0.751908529244517	-0.8710718619259585	-0.7947714828664619	0.4538450737297265	-0.925028762372494	-0.8724391042600945	0.38481515062862187	-0.7875446046243771	-0.8607065867469569	0.38096070201739224	-0.8402870021330029	-0.8134041484803096	0.40211557115494445	-0.9596845543116026	-0.051598889411711944	0.880100653596383	-1.0497399088472688	-0.07104804293095489	0.4842414952076769	-0.9541261540797091	-0.026434349056975497	0.15914927233687737	-1.1488718352492062	-0.023954038781483507	0.08082397405543883	-1.0141331531603122	0.019978711482348185	0.07822941476441979	-1.0427080544952654	-0.022773459906751604	0.11358772705642481	-1.206994126690431	0.2476637092132053	1.3180490446716202	-0.987471607098478	0.4048853674793932	1.4612384400888478	-0.8597945617982655	0.3361720444743982	1.3319113637032771	-0.8735147445337075	0.07916550230394875	1.409335848800509	-1.0213277827385212	-0.17143008193983264	1.4996772269521579	-1.0117793666787878	-0.10079985240465057	1.645611962912108	-0.8219472972016386	0.3312931126080303	1.1538368138692987	-1.0639067853290196	0.366173082426077	0.8772367297567457	-1.0672435571793253	0.3952870418982326	0.6275743723687727	-0.9830341222250375
51	0.85	-0.14595455711469363	0.946200221930625	-1.062071378320844	-0.22793332080970585	0.9981557637318191	-1.0392118012649956	-0.5195849880175312	0.7561832394943026	-0.8587638670248834	-0.7901470043543036	0.44619351805245716	-0.9121910806451361	-0.8620669113584021	0.37679194028513063	-0.7848018948569895	-0.8458321479077162	0.37304010321590414	-0.8314672510696062	-0.8079957845413834	0.39219844355198336	-0.9460120343357181	-0.058449640586608634	0.8817850727172377	-1.0439556677948116	-0.07142152429253662	0.4833950736508021	-0.9568989097177449	-0.02830123004549902	0.16061416795754965	-1.1437058241092801	-0.023154706812495568	0.08006496250995712	-1.0152870470430726	0.004818808372092166	0.07227491589779765	-1.068879769910325	-0.022920745644808057	0.11146350235021057	-1.205598923229606	0.24920290343038595	1.3230977193568774	-0.9819747646447423	0.39907296470665726	1.4617549225333941	-0.8422882653886211	0.32904673421256664	1.3303636355868393	-0.8629642981468322	0.07528603318733834	1.412284783986739	-1.009517329646656	-0.17370751568757745	1.4999961186793465	-0.991237946363497	-0.0823001247554744	1.6406301705153012	-0.8140608401222204	0.33109756576521177	1.1564612570077342	-1.061235670220688	0.3699943555255186	0.8768121475829962	-1.0607269129016481	0.39494422175725985	0.628005262617082	-0.9767602487020921
52	0.8666666666666667	-0.1435057985308712	0.948373674884344	-1.0640896829977131	-0.22636154600348332	1.001443377105656	-1.0362728803836003	-0.514634336950958	0.7551925883681235	-0.8550754848470666	-0.7718304001976237	0.44213236329724676	-0.9017506796716475	-0.8531819598060246	0.3668534003744705	-0.773401413583305	-0.8391479761030812	0.37052825987276244	-0.817128950056171	-0.7910269970031014	0.3899256707235709	-0.9357392198734769	-0.05432263574828355	0.8863966165794732	-1.0488009044840747	-0.07131589652003512	0.4897133646430386	-0.9542149917039522	-0.023723023563683783	0.15867486885401544	-1.144006126435183	-0.02649757897031715	0.08149815817914106	-1.006958845439948	0.0008965693485524707	0.06905555058739547	-1.056231189822328	-0.0179208191985784	0.11044529545901856	-1.2074016810327628	0.24846297289403413	1.3232109441167996	-0.9721895598653584	0.4001405115198765	1.4666853861847455	-0.8343265747252151	0.33681576408733005	1.3368109848142802	-0.8608627352685426	0.07734413173178063	1.4155774218488741	-1.0036147376488327	-0.16966975415979105	1.500841518403343	-0.9764264915572259	-0.07774787587312164	1.6345523117155616	-0.7937620033666457	0.3314964082145793	1.1549587749536951	-1.0583290965655112	0.37067253968462116	0.8822242471098205	-1.0647161333207578	0.3986044917685105	0.6277318873327913	-0.980708745643185
53	0.8833333333333333	-0.14511509804467984	0.9495214628562356	-1.0600515111659121	-0.22432895161964908	1.0031738576584175	-1.0363871012838042	-0.5078875879321875	0.7549847074977982	-0.8423198926026634	-0.7583439781827715	0.43150828466597146	-0.8910636599765429	-0.8343608250071061	0.36013810683160646	-0.7624986472388199	-0.8162128594120781	0.35736206913065893	-0.8040983409169884	-0.7798251330319051	0.3768102622996256	-0.9213614583202663	-0.056464940864626244	0.8884361154507626	-1.0447387924301077	-0.06590471725026333	0.4880666247043299	-0.9693100416190428	-0.02264644491491754	0.15407686832739598	-1.146074642744947	-0.021450300767339277	0.08214161390871885	-1.0150594283201522	0.024458649599015246	0.07435341010188135	-1.0452386612616158	-0.017657036942514484	0.10413705195001312	-1.2028174494298238	0.24502951061711004	1.3239953975757537	-0.9676054759789222	0.4013324729529297	1.4605052948784316	-0.8294207869421513	0.3221818077376416	1.3326731114173245	-0.8461538522765347	0.07663432749090911	1.4146279209071548	-0.9948374318707305	-0.1744364783465928	1.502689467828228	-0.961711814025138	-0.07312158893298382	1.6354055347398173	-0.7844791585419589	0.32840747687120647	1.160656366714469	-1.0549780489776763	0.37410561790753133	0.890862012074238	-1.0659446389900717	0.4023425523728471	0.6338417759264976	-0.9810069317722651
54	0.9	-0.14208466337771522	0.9501741040080053	-1.0631801312392357	-0.22760078790427998	1.0014478336874502	-1.0281656166806836	-0.5012119553159593	0.74664103003112	-0.8362922488883154	-0.7390348413418258	0.4192849908355054	-0.8809862121223121	-0.805153643107375	0.3535787839057268	-0.7535820534323759	-0.8009483485012463	0.3470008759644078	-0.7775103829904138	-0.7571312390571486	0.3615297193176974	-0.9108090335514408	-0.05492765208102554	0.8869608610853782	-1.0442898355324888	-0.063422016592529	0.4896229996762705	-0.964422244277238	-0.016372898207870544	0.15758486946061948	-1.146483341802082	-0.022753386085196673	0.08229375370153769	-1.0069775519507564	0.02523734283200895	0.07845504932299252	-1.0407203075735212	-0.010846542074615408	0.10618387199883815	-1.2037977695053357	0.24000789006961293	1.3230726640337218	-0.9544342364669582	0.40246548260137716	1.479521290306136	-0.8233336158274227	0.3282349253856794	1.3252110326836164	-0.8517643828466166	0.07003824679193757	1.4158482085274144	-0.9783454151196097	-0.17940894760781823	1.5056026071033253	-0.9463915386151385	-0.06280928783865486	1.6310528220133036	-0.7699474472862182	0.325159023579437	1.1576225529334017	-1.0455826168207996	0.3715833418893234	0.8881108410675275	-1.0550705618813698	0.40747206171685296	0.6347603888089542	-0.977445895372805
